name 900045_2.mot																																																																																																																																												
datacolumns 141																																																																																																																																												
datarows 7																																																																																																																																												
range 1.70000005 1.75																																																																																																																																												
endheader																																																																																																																																												

                time	           pelvis_tx	           pelvis_ty	           pelvis_tz	         pelvis_tilt	         pelvis_list	     pelvis_rotation	       hip_flexion_r	     hip_adduction_r	      hip_rotation_r	        knee_angle_r	       ankle_angle_r	    subtalar_angle_r	         mtp_angle_r	       hip_flexion_l	     hip_adduction_l	      hip_rotation_l	        knee_angle_l	       ankle_angle_l	    subtalar_angle_l	         mtp_angle_l	    lumbar_extension	      lumbar_bending	     lumbar_rotation	    ground_marker_px	    ground_marker_py	    ground_marker_pz	    ground_marker_px	    ground_marker_py	    ground_marker_pz	    ground_marker_px	    ground_marker_py	    ground_marker_pz	    ground_marker_px	    ground_marker_py	    ground_marker_pz	    ground_marker_px	    ground_marker_py	    ground_marker_pz	    ground_marker_px	    ground_marker_py	    ground_marker_pz	    ground_marker_px	    ground_marker_py	    ground_marker_pz	    ground_marker_px	    ground_marker_py	    ground_marker_pz	    ground_marker_px	    ground_marker_py	    ground_marker_pz	    ground_marker_px	    ground_marker_py	    ground_marker_pz	    ground_marker_px	    ground_marker_py	    ground_marker_pz	    ground_marker_px	    ground_marker_py	    ground_marker_pz	    ground_marker_px	    ground_marker_py	    ground_marker_pz	    ground_marker_px	    ground_marker_py	    ground_marker_pz	    ground_marker_px	    ground_marker_py	    ground_marker_pz	    ground_marker_px	    ground_marker_py	    ground_marker_pz	    ground_marker_px	    ground_marker_py	    ground_marker_pz	    ground_marker_px	    ground_marker_py	    ground_marker_pz	    ground_marker_px	    ground_marker_py	    ground_marker_pz	    ground_marker_px	    ground_marker_py	    ground_marker_pz	    ground_marker_px	    ground_marker_py	    ground_marker_pz	    ground_marker_px	    ground_marker_py	    ground_marker_pz	    ground_marker_px	    ground_marker_py	    ground_marker_pz	    ground_marker_px	    ground_marker_py	    ground_marker_pz	    ground_marker_px	    ground_marker_py	    ground_marker_pz	    ground_marker_px	    ground_marker_py	    ground_marker_pz	    ground_marker_px	    ground_marker_py	    ground_marker_pz	    ground_marker_px	    ground_marker_py	    ground_marker_pz	    ground_marker_px	    ground_marker_py	    ground_marker_pz	    ground_marker_px	    ground_marker_py	    ground_marker_pz	    ground_marker_px	    ground_marker_py	    ground_marker_pz	    ground_marker_px	    ground_marker_py	    ground_marker_pz	    ground_marker_px	    ground_marker_py	    ground_marker_pz	    ground_marker_px	    ground_marker_py	    ground_marker_pz	    ground_marker_px	    ground_marker_py	    ground_marker_pz	    ground_marker_px	    ground_marker_py	    ground_marker_pz	    ground_marker_px	    ground_marker_py	    ground_marker_pz	    ground_marker_px	    ground_marker_py	    ground_marker_pz	    ground_marker_px	    ground_marker_py	    ground_marker_pz
1.70000005	1.56499183	0.96085173	-0.24759489	-4.9276123	2.06047297	-2.51392198	1.92534447	-7.68387413	11.37212753	-1.04594851	4.9741559	0	0	-0.81761456	-2.05555964	4.76669312	-1.49408185	6.99251223	0	0	1.86835706	2.42906952	-4.52708578	1.47155547	0.88184476	-0.25420946	1.46761274	0.88022065	-0.17911576	1.47549832	0.88346881	-0.32930315	1.44321108	0.47027209	-0.13393252	1.43362844	0.46018451	-0.35596722	1.40622604	0.06924792	-0.12835996	1.38273776	0.07135647	-0.36514884	1.56499183	0.96085173	-0.24759489	1.55875123	0.95828116	-0.12873729	1.57123244	0.9634223	-0.36645252	1.37867427	1.01773179	-0.22381185	1.38846219	1.01584852	-0.30978531	1.45213771	0.47608066	-0.07641012	1.44165277	0.46300489	-0.41334015	1.42781281	0.47809014	-0.18728928	1.42946684	0.46632904	-0.30271977	1.39152324	0.07112018	-0.09120728	1.36500168	0.07449464	-0.39974055	1.41591167	0.08354587	-0.15822278	1.39119565	0.08362076	-0.33734548	1.34282362	0.04260416	-0.14407763	1.31754673	0.04296248	-0.35217816	1.48547208	1.36971271	-0.23690188	1.56824875	1.20633292	-0.2475566	1.37165022	1.4359144	-0.24205175	1.49451065	1.35842013	-0.18414859	1.50901794	1.36496365	-0.29213759	1.52582121	0.03942548	-0.09925668	1.50051665	0.04115004	-0.40175334	1.50562894	0.5913552	-0.01138051	1.59554255	0.55306959	-0.34147254	1.52203143	0.65218753	-0.08403033	1.53674543	0.61920184	-0.38295323	1.51343834	0.56423891	-0.09958472	1.51160228	0.53614962	-0.38620442	1.41785157	0.20521376	-0.00632974	1.4071002	0.21148491	-0.47985321	1.40618634	0.17223969	-0.07927921	1.38614774	0.17407048	-0.41096494
1.70833337	1.56502533	0.96092361	-0.24766263	-4.8955574	2.02583146	-2.51246977	1.8787632	-7.64258814	11.35781384	-1.03608549	4.97063446	0	0	-0.8811512	-2.08411479	4.83878803	-1.44310939	6.97465658	0	0	1.76898015	2.57339597	-4.65350866	1.471632	0.88186049	-0.25421333	1.46770525	0.88027716	-0.17911793	1.47555888	0.88344389	-0.32930875	1.44322014	0.47026595	-0.13400172	1.43345845	0.46013093	-0.35596111	1.40624571	0.06921262	-0.12836871	1.38270223	0.07137481	-0.36512408	1.56502533	0.96092361	-0.24766263	1.5588119	0.95841819	-0.12883855	1.57123876	0.96342903	-0.36648673	1.37867618	1.01772356	-0.2238906	1.38849008	1.0157609	-0.30971807	1.45214379	0.4760628	-0.07647769	1.44154644	0.46293834	-0.41332579	1.42698658	0.47832596	-0.18707004	1.42975926	0.46549857	-0.30338749	1.39154184	0.07109004	-0.09121671	1.36500418	0.0745013	-0.3997362	1.4158622	0.08356076	-0.15822145	1.39127445	0.08371849	-0.33730528	1.34281552	0.04260769	-0.1440523	1.31757724	0.04297324	-0.35220802	1.48533309	1.3696599	-0.23708698	1.56793761	1.20620239	-0.24788548	1.37165165	1.43594003	-0.24207105	1.49427259	1.35826576	-0.18451484	1.50896406	1.36497843	-0.29210475	1.52583969	0.03947032	-0.09925194	1.50055337	0.0411141	-0.40174568	1.50568295	0.59136844	-0.01146183	1.59553921	0.55310529	-0.34156382	1.52208209	0.65215522	-0.08402316	1.53663695	0.61898965	-0.38281998	1.51313305	0.56409526	-0.09959442	1.51181877	0.53600103	-0.38644576	1.41789842	0.20527209	-0.00634085	1.40711522	0.21146637	-0.47981396	1.40599799	0.17217641	-0.07920058	1.38615191	0.17399421	-0.41097909
1.7166667	1.56506157	0.9610095	-0.24773414	-4.86172867	1.9903847	-2.51050448	1.82846737	-7.60239553	11.3490572	-1.02792966	4.97254801	0	0	-0.93920422	-2.11679602	4.89251947	-1.40454006	6.96253395	0	0	1.71472883	2.73395562	-4.74520254	1.47171354	0.88188744	-0.25421897	1.4678036	0.8803454	-0.17912182	1.47562349	0.88342941	-0.32931611	1.44322133	0.47026995	-0.13406089	1.43335044	0.46011111	-0.3559784	1.40622687	0.06920946	-0.12837543	1.38268924	0.07139182	-0.36510494	1.56506157	0.9610095	-0.24773414	1.55887663	0.95857036	-0.12894356	1.57124639	0.96344864	-0.36652473	1.37865067	1.01772106	-0.22400209	1.38853455	1.01569235	-0.3097502	1.4521488	0.47605586	-0.07653633	1.4414829	0.4629117	-0.41333705	1.42662549	0.4783251	-0.18685097	1.43007946	0.46488735	-0.30385876	1.39152586	0.07109217	-0.09122255	1.36501741	0.07450794	-0.39973152	1.41578472	0.08359567	-0.1582123	1.39131486	0.08374812	-0.3372485	1.34280658	0.04260673	-0.14402458	1.31759095	0.04295738	-0.35221559	1.48526478	1.36967361	-0.23717059	1.56783307	1.20621336	-0.2482032	1.37168539	1.43594575	-0.24208423	1.49412048	1.35816085	-0.18460165	1.50897789	1.36510551	-0.29217151	1.52581632	0.03950827	-0.09930363	1.50058424	0.04108584	-0.40173769	1.50572991	0.59137845	-0.01153471	1.5955565	0.55313313	-0.34164563	1.522071	0.65218824	-0.08411525	1.53659856	0.61890447	-0.38275701	1.51300132	0.56405169	-0.09960488	1.51203477	0.53584749	-0.38662779	1.41794145	0.20531599	-0.00635353	1.40712368	0.2114564	-0.47979587	1.40612483	0.17217413	-0.07920326	1.3861264	0.17405377	-0.41095027
1.72500002	1.56509566	0.96109688	-0.24780104	-4.8264389	1.95619094	-2.50905108	1.77726746	-7.56428099	11.33925343	-1.02223194	4.97672176	0	0	-0.98760891	-2.15413713	4.91810513	-1.38723254	6.96193361	0	0	1.68166387	2.74682736	-4.7404952	1.4717952	0.88191348	-0.25422281	1.46790099	0.88041145	-0.17912406	1.47568941	0.88341552	-0.32932159	1.44322491	0.47028717	-0.13411324	1.43333173	0.46012548	-0.35603055	1.40619528	0.06922272	-0.12837917	1.38269114	0.07140494	-0.36509764	1.56509566	0.96109688	-0.24780104	1.55893743	0.95872158	-0.12904276	1.57125378	0.96347213	-0.3665593	1.37862158	1.0177002	-0.22412628	1.3885839	1.01563692	-0.30983451	1.45215404	0.47606325	-0.07658799	1.44148195	0.46292898	-0.41338658	1.42652416	0.47831401	-0.18669282	1.43004632	0.46539691	-0.30316678	1.39149594	0.07111106	-0.09122594	1.36502922	0.07451368	-0.39972985	1.41575766	0.08356898	-0.15823013	1.39123058	0.08369216	-0.33720654	1.3427906	0.04260474	-0.14399441	1.31759715	0.04293533	-0.35221794	1.48530471	1.36971736	-0.23720737	1.56787932	1.20625854	-0.24821301	1.37175655	1.43595541	-0.24207056	1.49417686	1.35822177	-0.18464518	1.50900173	1.36513329	-0.29220572	1.52577627	0.03954713	-0.09935348	1.50061131	0.04106881	-0.40172905	1.50576293	0.59138912	-0.01161217	1.59561133	0.55316818	-0.3417148	1.52217209	0.65227723	-0.08424238	1.53669274	0.61891854	-0.38273692	1.51300132	0.56405169	-0.09960488	1.51192176	0.53602415	-0.38635537	1.41798127	0.20534365	-0.00636765	1.40711474	0.21145965	-0.47980121	1.40641332	0.17224899	-0.07935964	1.38610804	0.17418104	-0.41093701
1.73333335	1.56512058	0.96116841	-0.24785316	-4.79571915	1.92737281	-2.50949168	1.73592377	-7.53021765	11.32578182	-1.02214539	4.98035288	0	0	-1.0215683	-2.19028568	4.91769314	-1.38734722	6.96926975	0	0	1.63410699	2.77481961	-4.73864174	1.47186184	0.88193202	-0.25422376	1.46797872	0.8804642	-0.17912373	1.47574484	0.88339984	-0.3293238	1.44324327	0.47031745	-0.13416786	1.43337929	0.46016392	-0.35609961	1.40617585	0.06923281	-0.12838088	1.38270664	0.07142009	-0.36510184	1.56512058	0.96116841	-0.24785316	1.55898154	0.95884782	-0.12912141	1.57125962	0.963489	-0.3665849	1.37861574	1.01764691	-0.22424589	1.38861978	1.01560938	-0.30989733	1.45216691	0.47608474	-0.07664084	1.44152415	0.46297723	-0.4134559	1.42643595	0.47853181	-0.18670173	1.43000495	0.46578336	-0.30291	1.39147329	0.07112763	-0.09122927	1.36504066	0.0745248	-0.39973232	1.41579211	0.08352368	-0.15823689	1.39117849	0.08365294	-0.33724394	1.34276891	0.04260425	-0.14397191	1.31760812	0.04291717	-0.35222644	1.48535526	1.36974502	-0.23724911	1.56788468	1.20626473	-0.2482761	1.37180603	1.43601882	-0.24205814	1.49423277	1.35824442	-0.1846882	1.50904214	1.36515725	-0.29225227	1.52572763	0.03958553	-0.09936287	1.50063622	0.04107106	-0.40172273	1.50577712	0.59139925	-0.01169193	1.59568691	0.55321997	-0.3417888	1.5223453	0.65239775	-0.08425871	1.53682756	0.61897707	-0.38287017	1.51301682	0.56411004	-0.09960621	1.51191294	0.5361228	-0.38631245	1.4180268	0.20535786	-0.00638473	1.4070884	0.21147054	-0.47982803	1.40635967	0.17228216	-0.07943705	1.38611519	0.17424875	-0.41095257
1.74166667	1.56513715	0.96123046	-0.24789247	-4.76920509	1.90373671	-2.51172924	1.7040596	-7.50086117	11.31181812	-1.02812624	4.98450661	0	0	-1.04842281	-2.22040701	4.90983915	-1.38902295	6.97378397	0	0	1.60390007	2.86000729	-4.77231359	1.47191453	0.88194841	-0.25422326	1.4680382	0.88050932	-0.17912234	1.47579074	0.88338751	-0.32932419	1.44327748	0.47035176	-0.13421887	1.43343759	0.46020731	-0.35615447	1.40616417	0.06924815	-0.12837443	1.38274527	0.07143167	-0.36510944	1.56513715	0.96123046	-0.24789247	1.55901003	0.95895565	-0.12917949	1.57126439	0.96350527	-0.36660546	1.37864637	1.01756585	-0.22435343	1.38864362	1.01561177	-0.30997762	1.452191	0.47611189	-0.07668959	1.44157255	0.46302968	-0.41351175	1.42651439	0.47852519	-0.18664496	1.42995656	0.46600607	-0.30301869	1.39145553	0.0711504	-0.09122556	1.36507237	0.07453361	-0.39973676	1.41582704	0.08352443	-0.15821879	1.39136815	0.0837687	-0.337304	1.3427465	0.04260676	-0.14396431	1.31761551	0.04291004	-0.35222858	1.48541582	1.36979711	-0.23729388	1.56794631	1.20632625	-0.24845023	1.37182176	1.4361155	-0.24214791	1.49425006	1.35823345	-0.18464459	1.50914693	1.36527419	-0.2923843	1.52567959	0.03961069	-0.09935392	1.50065541	0.04109369	-0.40172476	1.50577235	0.59141445	-0.01177246	1.59576201	0.55328369	-0.3418625	1.52234769	0.65251309	-0.0842208	1.53693223	0.61905116	-0.38321653	1.51303601	0.56409878	-0.09956063	1.51196504	0.53605419	-0.38649133	1.41806078	0.20537078	-0.00641909	1.40705097	0.2114825	-0.47986668	1.40629649	0.17229122	-0.07936841	1.38617516	0.17413493	-0.41090325
1.75	1.56515574	0.96129811	-0.24792974	-4.74123001	1.88109374	-2.5128994	1.67136478	-7.47370195	11.29862309	-1.03506005	4.98939848	0	0	-1.07713127	-2.24671531	4.90334988	-1.38840926	6.97453308	0	0	1.58571303	2.85190725	-4.80774212	1.47197115	0.8819682	-0.25422126	1.46810269	0.88055611	-0.17911941	1.47583961	0.88338029	-0.32932308	1.44332051	0.47037864	-0.13426055	1.43349349	0.46024597	-0.35618955	1.40615857	0.06927811	-0.12836362	1.38279605	0.0714252	-0.36511555	1.56515574	0.96129811	-0.24792974	1.55904162	0.95906621	-0.12923115	1.57126987	0.96352994	-0.36662832	1.37870824	1.01747942	-0.22444174	1.38867629	1.01561296	-0.31013909	1.45222569	0.47613248	-0.07672933	1.44161868	0.46307474	-0.41354787	1.42659867	0.47834769	-0.18645523	1.43003774	0.46624908	-0.30272755	1.39144492	0.07118745	-0.09121712	1.36511695	0.07452519	-0.39973986	1.41583478	0.08354954	-0.15819919	1.39145017	0.08373598	-0.33729172	1.3427273	0.04261049	-0.1439673	1.31761456	0.04290586	-0.35221741	1.48542738	1.36985743	-0.23733184	1.56798315	1.20639038	-0.24835834	1.37182558	1.43615282	-0.2422232	1.49423206	1.35832107	-0.18464221	1.50919127	1.3653096	-0.29243734	1.52565861	0.03961625	-0.09934264	1.50065422	0.04112564	-0.40173814	1.50575745	0.59143984	-0.01185949	1.59585285	0.55335522	-0.3419416	1.52233171	0.65261984	-0.08421139	1.53700447	0.61906904	-0.38340101	1.51304162	0.56396872	-0.09947325	1.51198816	0.53604376	-0.38645175	1.41807485	0.20539628	-0.00647056	1.40700829	0.21149093	-0.47990757	1.40653527	0.17231883	-0.07941972	1.3863101	0.17393242	-0.41077226
